PathFileType	4	(X/Y/Z)	C:/Users/opensim2020/Desktop/walking_exp_matlab/subject03_walking04_straight_01.trc																																																																																																																																																							
DataRate	CameraRate	NumFrames	NumMarkers	Units	OrigDataRate	OrigDataStartFrame	OrigNumFrames																																																																																																																																																			
100	100	8	51	mm	100	769	265																																																																																																																																																			
Frame#	Time	LFHD			RFHD			LBHD			RBHD			C7			T10			CLAV			STRN			RBAK			LSHO			LUPA			LELB			LFRM			LWRA			LWRB			LFIN			RSHO			RUPA			RELB			RFRM			RWRA			RWRB			RFIN			LASI			RASI			LPSI			RPSI			LTHI			LKNE			LTIB			LANK			LHEE			LTOE			RTHI			RKNE			RTIB			RANK			RHEE			RTOE			*39			*40			*41			*42			*43			*44			*45			*46			*47			*48			*49			*50		
		X1	Y1	Z1	X2	Y2	Z2	X3	Y3	Z3	X4	Y4	Z4	X5	Y5	Z5	X6	Y6	Z6	X7	Y7	Z7	X8	Y8	Z8	X9	Y9	Z9	X10	Y10	Z10	X11	Y11	Z11	X12	Y12	Z12	X13	Y13	Z13	X14	Y14	Z14	X15	Y15	Z15	X16	Y16	Z16	X17	Y17	Z17	X18	Y18	Z18	X19	Y19	Z19	X20	Y20	Z20	X21	Y21	Z21	X22	Y22	Z22	X23	Y23	Z23	X24	Y24	Z24	X25	Y25	Z25	X26	Y26	Z26	X27	Y27	Z27	X28	Y28	Z28	X29	Y29	Z29	X30	Y30	Z30	X31	Y31	Z31	X32	Y32	Z32	X33	Y33	Z33	X34	Y34	Z34	X35	Y35	Z35	X36	Y36	Z36	X37	Y37	Z37	X38	Y38	Z38	X39	Y39	Z39	X40	Y40	Z40	X41	Y41	Z41	X42	Y42	Z42	X43	Y43	Z43	X44	Y44	Z44	X45	Y45	Z45	X46	Y46	Z46	X47	Y47	Z47	X48	Y48	Z48	X49	Y49	Z49	X50	Y50	Z50	X51	Y51	Z51
																																																																																																																																																										
34	0.33	-1058.72034	1621.99792	-1226.37695	-1078.66406	1625.48022	-1095.79578	-1185.03906	1572.95972	-1241.28699	-1199.70947	1576.73499	-1109.67529	-1216.80591	1417.59509	-1181.36792	-1262.97559	1108.4353	-1185.93579	-1095.75366	1338.56604	-1174.25476	-1056.74158	1171.06848	-1182.72168	-1277.52661	1242.68909	-1090.64075	-1129.21191	1381.29041	-1330.39697	-1117.87634	1184.57117	-1395.69812	-1118.12659	1063.48389	-1414.52356	-1077.14417	939.9895	-1411.75073	-1042.37756	826.48199	-1378.28784	-1065.84131	826.97327	-1428.51062	-1038.35925	747.31793	-1415.95923	-1150.22314	1360.38428	-1017.42249	-1153.01147	1138.22253	-943.65839	-1137.97656	1026.45715	-929.01727	-1123.41431	890.31409	-924.34125	-1095.99084	793.52106	-959.0741	-1124.53259	790.20795	-913.54663	-1104.25928	718.17944	-923.74176	-1111.56836	929.10071	-1298.29565	-1109.81787	938.96442	-1061.33691	-1272.51794	960.20026	-1249.6532	-1267.9541	979.12469	-1101.60657	-1139.42712	627.81586	-1356.47156	-1135.20752	446.14597	-1337.71362	-1290.25	326.17532	-1333.82971	-1449.96277	192.09804	-1290.64758	-1496.05945	205.00861	-1252.69983	-1392.78479	53.92501	-1269.83521	-1171.39722	649.71228	-1017.73981	-1159.0155	470.6908	-1054.13379	-1199.10864	283.35501	-1048.88086	-1216.22192	66.95775	-1097.80054	-1258.57593	34.10551	-1148.4928	-1072.27795	30.5681	-1110.5127	-1153.5094	625.67023	-1355.26404	NaN	NaN	NaN	NaN	NaN	NaN	NaN	NaN	NaN	NaN	NaN	NaN	NaN	NaN	NaN	NaN	NaN	NaN	NaN	NaN	NaN	NaN	NaN	NaN	NaN	NaN	NaN	NaN	NaN	NaN	NaN	NaN	NaN
35	0.34	-1050.06458	1622.11194	-1226.19971	-1069.70984	1625.94617	-1095.58069	-1176.36292	1573.2804	-1240.63855	-1190.82629	1577.43823	-1109.04993	-1208.59253	1417.94312	-1180.02332	-1255.01184	1109.10376	-1184.47534	-1087.8877	1339.01904	-1173.53137	-1048.91907	1171.37769	-1181.28149	-1269.10095	1243.50195	-1088.81995	-1122.07849	1381.71814	-1329.60461	-1113.5531	1185.02673	-1395.72278	-1113.65955	1063.87817	-1414.39954	-1073.63123	940.00446	-1412.58948	-1039.54639	825.97479	-1379.99084	-1063.66895	826.97656	-1430.09937	-1036.51062	747.1347	-1418.61096	-1141.3623	1361.38049	-1016.56903	-1141.55933	1139.3551	-942.06378	-1125.01575	1027.8501	-927.21674	-1109.06628	891.89246	-922.02228	-1081.13892	795.14935	-956.62061	-1109.09778	791.8031	-910.55524	-1088.15552	719.98877	-920.68805	-1103.43945	930.25031	-1296.62109	-1101.87646	938.82385	-1059.88513	-1264.39807	961.27612	-1248.68408	-1259.89026	979.2262	-1100.42102	-1130.81226	628.83856	-1354.6925	-1116.31714	448.45795	-1335.61609	-1270.03491	324.25256	-1329.84534	-1425.47473	189.14307	-1288.48608	-1473.43005	198.8028	-1249.73865	-1363.06738	53.36227	-1266.13281	-1165.17859	649.29022	-1017.63141	-1155.08887	470.4035	-1053.74805	-1197.08704	283.40649	-1048.7821	-1216.31335	67.48325	-1097.60474	-1258.51074	34.49873	-1148.54028	-1072.20215	30.51181	-1110.44446	-1140.93457	627.14221	-1353.18896	NaN	NaN	NaN	NaN	NaN	NaN	NaN	NaN	NaN	NaN	NaN	NaN	NaN	NaN	NaN	NaN	NaN	NaN	NaN	NaN	NaN	NaN	NaN	NaN	NaN	NaN	NaN	NaN	NaN	NaN	NaN	NaN	NaN
36	0.35	-1041.46655	1622.16565	-1226.17859	-1060.58667	1626.39771	-1095.59009	-1167.70081	1573.6123	-1240.04712	-1181.95703	1578.15247	-1108.48169	-1200.53821	1418.47327	-1178.90063	-1246.83325	1109.35815	-1182.91028	-1079.35217	1339.78943	-1173.56982	-1040.8147	1171.84363	-1180.51233	-1260.65759	1244.2439	-1087.04761	-1114.82361	1381.95361	-1328.73914	-1109.22266	1185.44263	-1395.8551	-1109.18555	1064.23279	-1414.38342	-1070.08728	939.87152	-1413.29431	-1036.76978	825.42242	-1381.79333	-1061.36768	827.04932	-1431.64941	-1034.66833	746.94543	-1421.20581	-1132.43079	1362.1239	-1015.70477	-1130.28625	1140.4834	-940.50507	-1112.18311	1029.28625	-925.47968	-1094.80261	893.505	-919.6394	-1066.36206	796.7533	-953.9657	-1093.61487	793.62988	-907.7135	-1072.14575	721.83362	-917.26849	-1095.95313	930.7406	-1294.73315	-1094.02954	938.85077	-1058.75342	-1256.00281	962.19531	-1247.77637	-1251.92932	979.3584	-1099.20801	-1122.8407	629.20172	-1352.69995	-1098.92529	449.62668	-1332.25208	-1249.25305	322.64001	-1326.73022	-1403.02197	182.56529	-1283.89905	-1450.4989	191.228	-1246.54053	-1332.43262	51.99633	-1262.22778	-1160.19385	649.47986	-1016.59833	-1151.22449	470.16721	-1053.24719	-1195.39868	283.93658	-1048.40015	-1216.29907	67.96116	-1097.37305	-1258.40503	34.96296	-1148.65759	-1072.15466	30.44106	-1110.3241	NaN	NaN	NaN	NaN	NaN	NaN	NaN	NaN	NaN	NaN	NaN	NaN	NaN	NaN	NaN	NaN	NaN	NaN	NaN	NaN	NaN	NaN	NaN	NaN	NaN	NaN	NaN	NaN	NaN	NaN	NaN	NaN	NaN	NaN	NaN	NaN
37	0.36	-1032.90894	1622.18066	-1226.19678	-1051.62866	1626.71521	-1095.54016	-1159.09009	1573.9281	-1239.54846	-1173.13953	1578.85095	-1108.0061	-1192.42078	1418.86877	-1177.79187	-1238.8833	1109.77905	-1181.45386	-1071.5957	1339.65735	-1172.20898	-1033.0144	1172.08997	-1179.48938	-1252.20313	1244.91296	-1085.2926	-1107.66663	1382.19556	-1328.01807	-1104.88635	1185.74634	-1395.97705	-1104.70593	1064.47522	-1414.35657	-1066.40515	939.86664	-1414.13965	-1033.61694	825.02966	-1383.7887	-1059.14917	827.0282	-1433.11194	-1032.88306	746.81946	-1423.88672	-1123.5387	1362.81262	-1014.85583	-1119.02625	1141.66516	-938.98779	-1099.54114	1030.77148	-923.61829	-1080.59216	895.24463	-917.35846	-1051.37	798.63812	-951.50861	-1078.18896	795.34094	-904.94855	-1056.06958	723.85785	-914.61182	-1088.68811	931.15283	-1292.59216	-1086.22546	938.59558	-1057.62292	-1247.37097	962.82611	-1246.84753	-1243.81494	979.52423	-1098.2168	-1115.08984	629.48676	-1350.45447	-1081.17419	451.68863	-1329.29724	-1228.45361	320.85913	-1323.50952	-1376.37952	178.32425	-1282.021	-1426.68237	182.4455	-1243.10205	-1301.39551	50.01269	-1258.453	-1154.09778	649.06079	-1016.35693	-1147.28772	469.8963	-1052.81995	-1193.37708	284.10101	-1048.21838	-1216.12097	68.31799	-1097.3988	-1258.245	35.53883	-1148.84131	-1072.05444	30.39104	-1110.21094	NaN	NaN	NaN	NaN	NaN	NaN	NaN	NaN	NaN	NaN	NaN	NaN	NaN	NaN	NaN	NaN	NaN	NaN	NaN	NaN	NaN	NaN	NaN	NaN	NaN	NaN	NaN	NaN	NaN	NaN	NaN	NaN	NaN	NaN	NaN	NaN
38	0.37	-1024.16064	1622.04651	-1226.2074	-1042.69519	1627.05469	-1095.56213	-1150.50879	1574.19104	-1239.17932	-1164.35107	1579.49634	-1107.6604	-1184.24072	1419.11084	-1176.71997	-1230.79651	1110.05396	-1179.96997	-1063.47913	1339.99805	-1171.77319	-1024.9469	1172.39709	-1178.77979	-1243.73047	1245.44531	-1083.52649	-1100.59167	1382.39111	-1327.46313	-1100.4353	1185.97021	-1396.22693	-1100.11072	1064.63794	-1414.45801	-1062.78638	939.72089	-1414.98633	-1030.51245	824.59198	-1385.68347	-1056.69397	826.93024	-1434.58337	-1030.91748	746.59991	-1426.25269	-1114.74207	1363.61108	-1014.17554	-1107.85474	1142.76318	-937.57654	-1086.97083	1032.18359	-921.86169	-1066.35156	896.9198	-915.12646	-1035.90833	800.58191	-949.11597	-1062.80188	797.11279	-902.30322	-1039.96924	725.85205	-911.76196	-1078.50696	933.30737	-1292.03979	-1077.95972	938.46301	-1056.44849	-1239.0166	963.56396	-1246.16443	-1235.82178	979.73712	-1097.25781	-1097.70593	631.74677	-1346.8313	-1063.80554	453.91174	-1326.27148	-1207.60413	318.92963	-1320.1936	-1352.5658	169.88197	-1277.27551	-1401.7572	172.63499	-1239.82166	-1268.33521	48.45261	-1255.05676	-1148.8855	649.09344	-1015.63086	-1143.34009	469.68753	-1052.35986	-1191.29468	284.30618	-1048.07825	-1215.90283	68.73738	-1097.45398	-1257.93945	35.99611	-1148.82996	-1071.96545	30.32535	-1110.08777	NaN	NaN	NaN	NaN	NaN	NaN	NaN	NaN	NaN	NaN	NaN	NaN	NaN	NaN	NaN	NaN	NaN	NaN	NaN	NaN	NaN	NaN	NaN	NaN	NaN	NaN	NaN	NaN	NaN	NaN	NaN	NaN	NaN	NaN	NaN	NaN
39	0.38	-1015.40289	1621.74426	-1226.14148	-1033.66882	1627.21375	-1095.77551	-1142.0498	1574.49597	-1238.828	-1155.68494	1580.18359	-1107.33228	-1176.21655	1419.55261	-1175.8374	-1222.73218	1110.26514	-1178.50293	-1055.45239	1340.13013	-1171.22717	-1016.99524	1172.56738	-1177.92603	-1235.30725	1245.8988	-1081.72217	-1093.54565	1382.49622	-1327.07117	-1096.41553	1186.28271	-1397.04041	-1095.94751	1064.88904	-1415.12292	-1059.21716	939.60571	-1416.27527	-1027.47314	824.02094	-1387.45325	-1054.16919	826.76257	-1436.00366	-1028.66455	746.22888	-1428.13708	-1105.83069	1364.18811	-1013.58521	-1096.74438	1143.84717	-936.1781	-1074.53723	1033.57056	-920.08118	-1052.23669	898.60638	-912.98865	-1020.90582	802.52966	-946.70593	-1047.401	798.93842	-899.85333	-1023.69312	727.70898	-909.10339	-1070.01196	934.23395	-1290.86353	-1069.99683	938.16254	-1055.35376	-1230.71924	964.20801	-1245.59583	-1227.82239	979.9082	-1096.4259	-1091.23584	629.23541	-1342.1449	-1046.96167	456.18475	-1323.09497	-1186.72314	316.776	-1316.88855	-1326.47791	162.0843	-1273.67822	-1375.64648	162.22995	-1236.00085	-1234.49536	47.1032	-1252.46216	-1143.13037	648.82001	-1015.11371	-1139.33789	469.45587	-1051.96216	-1189.14075	284.56467	-1048.03345	-1215.64563	69.22389	-1097.55029	-1257.71362	36.74176	-1149.07153	-1071.8418	30.27824	-1110.00635	NaN	NaN	NaN	NaN	NaN	NaN	NaN	NaN	NaN	NaN	NaN	NaN	NaN	NaN	NaN	NaN	NaN	NaN	NaN	NaN	NaN	NaN	NaN	NaN	NaN	NaN	NaN	NaN	NaN	NaN	NaN	NaN	NaN	NaN	NaN	NaN
40	0.39	-1006.80536	1621.4845	-1226.31482	-1024.84692	1627.27246	-1095.88904	-1133.44299	1574.54956	-1238.65967	-1146.87097	1580.61951	-1107.18713	-1167.97363	1419.58105	-1174.9231	-1214.62219	1110.40137	-1177.03564	-1047.38867	1340.27063	-1170.78809	-1008.93542	1172.65808	-1177.22681	-1226.68506	1246.23254	-1080.12573	-1086.22534	1382.24963	-1326.31079	-1091.88318	1186.31238	-1397.41296	-1091.27161	1064.8573	-1415.34692	-1055.49023	939.26636	-1417.05054	-1024.35156	823.40045	-1389.17224	-1051.53772	826.51367	-1437.47229	-1026.46777	745.80127	-1430.22998	-1097.00037	1364.67993	-1012.9021	-1085.78516	1144.80115	-934.85834	-1062.23279	1034.9032	-918.38922	-1038.15332	900.29962	-910.92352	-1005.64471	804.47711	-944.31439	-1032.0686	800.67676	-897.51141	-1007.48676	729.80145	-906.59344	-1061.76257	934.87866	-1289.38513	-1062.05115	937.88739	-1054.45178	-1222.29883	964.63666	-1245.09167	-1219.79175	980.06299	-1095.67859	-1067.328	636.48328	-1344.26208	-1030.07483	459.15961	-1320.37537	-1165.88892	314.32629	-1313.53394	-1298.32068	155.33234	-1271.26819	-1348.77576	151.26584	-1232.23962	-1200.80615	45.14356	-1249.50293	-1136.98669	648.30121	-1015.10565	-1135.33508	469.26581	-1051.61243	-1186.93518	284.84552	-1048.04138	-1215.18445	69.5672	-1097.88611	-1257.51709	37.52682	-1149.24524	-1071.67664	30.24762	-1109.9082	NaN	NaN	NaN	NaN	NaN	NaN	NaN	NaN	NaN	NaN	NaN	NaN	NaN	NaN	NaN	NaN	NaN	NaN	NaN	NaN	NaN	NaN	NaN	NaN	NaN	NaN	NaN	NaN	NaN	NaN	NaN	NaN	NaN	NaN	NaN	NaN
41	0.4	-999.57904	1621.37903	-1228.33911	-1015.93176	1627.31836	-1096.12976	-1124.93176	1574.55127	-1238.53564	-1138.15271	1581.00366	-1107.0863	-1159.77417	1419.61353	-1174.11523	-1206.45325	1110.43164	-1175.64465	-1039.26831	1340.25269	-1170.40454	-1000.8161	1172.52722	-1176.67554	-1218.08862	1246.46106	-1078.49463	-1079.12219	1382.05664	-1325.92407	-1087.31506	1186.16199	-1397.73242	-1086.55994	1064.64563	-1415.51733	-1051.74768	938.80188	-1418.0885	-1021.05713	822.79602	-1390.87134	-1048.72937	826.12378	-1438.8291	-1024.14075	745.29492	-1432.10864	-1088.13989	1365.1449	-1012.47681	-1074.88916	1145.69263	-933.56213	-1050.02686	1036.13562	-916.72485	-1024.13147	901.89606	-909.00122	-990.25891	806.51837	-942.2876	-1016.60205	802.4649	-895.45374	-991.13727	731.86615	-904.46582	-1053.36401	935.48279	-1288.10388	-1054.15771	937.49487	-1053.40222	-1214.24878	965.25317	-1244.70447	-1211.72876	980.13263	-1095.02075	-1058.33826	636.20544	-1341.76538	-1014.31348	461.45374	-1317.14575	-1142.82581	313.48154	-1311.90039	-1271.77966	145.50572	-1266.8429	-1321.04614	139.65221	-1229.00305	-1166.51416	43.17607	-1246.63989	-1131.43933	648.10583	-1014.58484	-1131.24829	469.05832	-1051.30737	-1184.70886	285.10742	-1048.04883	-1214.86035	70.11653	-1097.94897	-1257.27295	38.36311	-1149.4248	-1071.53027	30.19248	-1109.82068	NaN	NaN	NaN	NaN	NaN	NaN	NaN	NaN	NaN	NaN	NaN	NaN	NaN	NaN	NaN	NaN	NaN	NaN	NaN	NaN	NaN	NaN	NaN	NaN	NaN	NaN	NaN	NaN	NaN	NaN	NaN	NaN	NaN	NaN	NaN	NaN
